<?xml version="1.0" standalone="no"?>
<!DOCTYPE svg PUBLIC "-//W3C//DTD SVG 20010904//EN"
 "http://www.w3.org/TR/2001/REC-SVG-20010904/DTD/svg10.dtd">
<svg version="1.0" xmlns="http://www.w3.org/2000/svg"
 width="128.000000pt" height="128.000000pt" viewBox="0 0 128.000000 128.000000"
 preserveAspectRatio="xMidYMid meet">
<metadata>
Created by potrace 1.11, written by Peter Selinger 2001-2013
</metadata>
<g transform="translate(0.000000,128.000000) scale(0.100000,-0.100000)"
fill="#000000" stroke="none">
<path d="M524 1000 c-27 -9 -64 -25 -82 -34 -65 -33 -151 -140 -167 -208 -6
-23 -13 -28 -39 -28 -135 0 -249 -133 -233 -272 7 -58 45 -128 85 -156 57 -41
88 -43 547 -40 409 3 442 4 475 22 68 36 109 77 139 137 27 53 30 69 27 132
-3 84 -25 133 -84 191 -34 32 -139 83 -150 72 -9 -10 36 -96 66 -126 42 -42
54 -72 53 -128 -1 -87 -73 -152 -166 -152 -26 0 -45 3 -43 8 62 121 63 125 63
222 0 87 -3 101 -32 160 -42 85 -100 143 -182 182 -83 40 -195 47 -277 18z
m217 -157 c139 -71 168 -252 58 -362 -65 -64 -102 -71 -376 -70 l-234 1 -29
25 c-25 21 -30 32 -30 70 0 38 5 50 34 79 19 19 45 35 57 35 57 4 86 3 110 -4
25 -6 27 -4 45 56 14 49 29 73 70 114 85 85 195 106 295 56z"/>
</g>
</svg>
